<svg xmlns="http://www.w3.org/2000/svg" width="30" height="29" viewBox="0 0 30 29"><defs><linearGradient id="c9bha" x1="-900" x2="-900" y1="-4687" y2="-4687" gradientUnits="userSpaceOnUse"><stop offset="0" stop-color="#e09b3d"/><stop offset=".3" stop-color="#c74c4d"/><stop offset=".6" stop-color="#c21975"/><stop offset="1" stop-color="#7024c4"/></linearGradient><linearGradient id="c9bhb" x1="15.04" x2="15.04" y1=".24" y2="28.93" gradientUnits="userSpaceOnUse"><stop offset="0" stop-color="#e09b3d"/><stop offset=".3" stop-color="#c74c4d"/><stop offset=".6" stop-color="#c21975"/><stop offset="1" stop-color="#7024c4"/></linearGradient><linearGradient id="c9bhc" x1="22.55" x2="22.55" y1=".25" y2="28.9" gradientUnits="userSpaceOnUse"><stop offset="0" stop-color="#e09b3d"/><stop offset=".3" stop-color="#c74c4d"/><stop offset=".6" stop-color="#c21975"/><stop offset="1" stop-color="#7024c4"/></linearGradient></defs><g><g><g><path fill="url(#c9bha)" d="M26.627 20.36a5.722 5.722 0 0 1-5.722 5.723H9.184a5.722 5.722 0 0 1-5.722-5.722V8.639a5.722 5.722 0 0 1 5.722-5.722h11.721a5.722 5.722 0 0 1 5.722 5.722zM20.905 0H9.184C4.42 0 .544 3.876.544 8.64v11.72c0 4.764 3.876 8.64 8.64 8.64h11.721c4.764 0 8.64-3.876 8.64-8.64V8.64c0-4.764-3.876-8.64-8.64-8.64z"/></g><g><path fill="url(#c9bhb)" d="M15.044 19.083a4.583 4.583 0 1 1 0-9.166 4.583 4.583 0 0 1 0 9.166zm0-12.083c-4.135 0-7.5 3.364-7.5 7.5s3.365 7.5 7.5 7.5c4.136 0 7.5-3.364 7.5-7.5S19.18 7 15.045 7z"/></g><g><path fill="url(#c9bhc)" d="M20.762 7.056a1.797 1.797 0 1 1 3.595 0 1.797 1.797 0 0 1-3.595 0z"/></g></g></g></svg>