<svg xmlns="http://www.w3.org/2000/svg" width="171" height="139" viewBox="0 0 171 139"><g><g><g opacity=".1"><path fill="#6c63ff" d="M157.759 134.703c-3.496-3.496-5.162-7.497-3.722-8.937 1.44-1.44 5.44.227 8.936 3.722 3.496 3.496 5.162 7.497 3.723 8.937-1.44 1.44-5.441-.227-8.937-3.722z"/></g><g><path fill="#3f3d56" d="M159.02 130.088c0-1.43.886-2.591 1.979-2.591s1.979 1.16 1.979 2.591c0 1.432-.886 2.592-1.98 2.592-1.092 0-1.978-1.16-1.978-2.592z"/></g><g><path fill="#3f3d56" d="M159.02 126.922c0-1.432.886-2.592 1.979-2.592s1.979 1.16 1.979 2.592c0 1.43-.886 2.591-1.98 2.591-1.092 0-1.978-1.16-1.978-2.591z"/></g><g><path fill="#3f3d56" d="M159.02 123.755c0-1.432.886-2.592 1.979-2.592s1.979 1.16 1.979 2.592c0 1.43-.886 2.591-1.98 2.591-1.092 0-1.978-1.16-1.978-2.591z"/></g><g><path fill="#3f3d56" d="M159.02 120.588c0-1.432.886-2.592 1.979-2.592s1.979 1.16 1.979 2.592c0 1.43-.886 2.591-1.98 2.591-1.092 0-1.978-1.16-1.978-2.591z"/></g><g><path fill="#3f3d56" d="M159.02 117.42c0-1.43.886-2.59 1.979-2.59s1.979 1.16 1.979 2.59c0 1.432-.886 2.592-1.98 2.592-1.092 0-1.978-1.16-1.978-2.591z"/></g><g><path fill="#3f3d56" d="M159.02 114.254c0-1.431.886-2.592 1.979-2.592s1.979 1.16 1.979 2.592c0 1.431-.886 2.591-1.98 2.591-1.092 0-1.978-1.16-1.978-2.591z"/></g><g><path fill="#3f3d56" d="M159.02 111.087c0-1.431.886-2.592 1.979-2.592s1.979 1.16 1.979 2.592c0 1.431-.886 2.591-1.98 2.591-1.092 0-1.978-1.16-1.978-2.591z"/></g><g><path fill="#f7b12b" d="M168.408 89.415c.27-.344.517-.707.738-1.085l-5.202-.854 5.626.04a9.506 9.506 0 0 0 .184-7.512l-7.545 3.916 6.955-5.116a9.482 9.482 0 1 0-15.66 10.61 9.435 9.435 0 0 0-1.08 1.729l6.75 3.504-7.193-2.416a9.49 9.49 0 0 0 1.53 8.903 9.48 9.48 0 1 0 14.902 0 9.482 9.482 0 0 0 0-11.723z"/></g><g opacity=".1"><path d="M151.476 95.276a9.436 9.436 0 0 0 2.029 5.862 9.48 9.48 0 1 0 14.903 0c1.27-1.612-16.932-6.926-16.932-5.862z"/></g><g><path fill="#444053" d="M156.266-.074v132.8l-45.005-6.271-54.708 11.16-.44.091-43.53-11.989V10.255l45.19-10.33 49.43 10.33 1.88-.397z"/></g><g><path fill="#fff" d="M148.704 7.178V126l-40.267-5.61-48.95 9.985-.394.08-38.947-10.726V16.418l40.434-9.24 44.226 9.24 1.682-.353z"/></g><g opacity=".1"><path d="M111.261 126.455l-54.708 11.16 1.22-137.69 49.43 10.33 1.88-.397z"/></g><g opacity=".3"><g opacity=".3"><path fill="none" stroke="#444053" stroke-miterlimit="20" stroke-width="3" d="M105.798 25.38v0l.022 38.64v0h16.047v0-15.862 0h27.482v0l3.228-4.139v0"/></g><g opacity=".3"><path fill="none" stroke="#444053" stroke-miterlimit="20" stroke-width="3" d="M16.457 37.645v0h59.668v0l3.688-1.66v0h1.476v37.258h25.822v0l1.107 3.32v16.784h19.92v20.75"/></g><g opacity=".3"><path fill="none" stroke="#444053" stroke-miterlimit="20" stroke-width="3" d="M89.17 114.097V73.243"/></g><g opacity=".3"><path fill="none" stroke="#444053" stroke-miterlimit="20" stroke-width="3" d="M152.577 103.152H89.17"/></g><g opacity=".3"><path fill="none" stroke="#444053" stroke-miterlimit="20" stroke-width="3" d="M136.696 25.38v88.717"/></g><g opacity=".3"><path fill="none" stroke="#444053" stroke-miterlimit="20" stroke-width="3" d="M16.272 95.31h136.305"/></g><g opacity=".3"><path fill="none" stroke="#444053" stroke-miterlimit="20" stroke-width="3" d="M32.861 114.097V25.38"/></g><g opacity=".3"><path fill="none" stroke="#444053" stroke-miterlimit="20" stroke-width="3" d="M64.545 25.38v88.717"/></g><g opacity=".3"><path fill="none" stroke="#444053" stroke-miterlimit="20" stroke-width="3" d="M16.457 47.79l105.41.368"/></g><g opacity=".3"><path fill="none" stroke="#444053" stroke-miterlimit="20" stroke-width="3" d="M47.135 25.54v88.557"/></g><g opacity=".3"><path fill="none" stroke="#444053" stroke-miterlimit="20" stroke-width="3" d="M16.272 68.322v0h48.273v0L89.17 95.31v0"/></g><g opacity=".3"><path fill="none" stroke="#444053" stroke-miterlimit="20" stroke-width="3" d="M94.505 25.38v47.863"/></g><g opacity=".3"><path fill="none" stroke="#444053" stroke-miterlimit="20" stroke-width="3" d="M89.17 81.816h63.407"/></g></g><g><path fill="#575988" d="M108.126 81.45h-18.63v-8.115l17.615-.092 1.107 3.135z"/></g><g><path fill="#6c63ff" d="M98.903 53.942a4.486 4.486 0 1 1 0-8.967 4.486 4.486 0 0 1 0 8.965zm0-14.545c-5.63 0-10.196 4.565-10.196 10.196 0 5.631 10.196 23.926 10.196 23.926S109.1 55.232 109.1 49.593c0-5.631-4.565-10.196-10.196-10.196z"/></g><g><path fill="#ea358b" d="M98.903 55.418a4.486 4.486 0 1 1 0-8.968 4.486 4.486 0 0 1 0 8.966zm0-14.545c-5.63 0-10.196 4.564-10.196 10.196 0 5.63 10.196 23.926 10.196 23.926S109.1 56.707 109.1 51.069c0-5.632-4.565-10.197-10.196-10.197z"/></g><g><path fill="#3f3d56" d="M93.005 127.648c0-.986.611-1.785 1.365-1.785s1.365.8 1.365 1.785c0 .986-.611 1.786-1.365 1.786s-1.365-.8-1.365-1.786z"/></g><g opacity=".1"><path fill="#6c63ff" d="M6.33 130.645c-3.496-3.496-5.163-7.497-3.723-8.937 1.44-1.44 5.44.227 8.937 3.723 3.495 3.495 5.162 7.496 3.722 8.936-1.44 1.44-5.441-.226-8.937-3.722z"/></g><g><path fill="#3f3d56" d="M7.59 126.03c0-1.43.887-2.59 1.98-2.59s1.979 1.16 1.979 2.59c0 1.432-.886 2.592-1.98 2.592-1.092 0-1.979-1.16-1.979-2.591z"/></g><g><path fill="#3f3d56" d="M7.59 122.864c0-1.431.887-2.592 1.98-2.592s1.979 1.16 1.979 2.592c0 1.431-.886 2.591-1.98 2.591-1.092 0-1.979-1.16-1.979-2.591z"/></g><g><path fill="#3f3d56" d="M7.59 119.697c0-1.431.887-2.592 1.98-2.592s1.979 1.16 1.979 2.592c0 1.431-.886 2.591-1.98 2.591-1.092 0-1.979-1.16-1.979-2.591z"/></g><g><path fill="#3f3d56" d="M7.59 116.53c0-1.431.887-2.592 1.98-2.592s1.979 1.16 1.979 2.592c0 1.431-.886 2.591-1.98 2.591-1.092 0-1.979-1.16-1.979-2.591z"/></g><g><path fill="#3f3d56" d="M7.59 113.363c0-1.431.887-2.591 1.98-2.591s1.979 1.16 1.979 2.591c0 1.431-.886 2.591-1.98 2.591-1.092 0-1.979-1.16-1.979-2.591z"/></g><g><path fill="#3f3d56" d="M7.59 110.196c0-1.431.887-2.591 1.98-2.591s1.979 1.16 1.979 2.591c0 1.431-.886 2.592-1.98 2.592-1.092 0-1.979-1.16-1.979-2.592z"/></g><g><path fill="#3f3d56" d="M7.59 107.03c0-1.432.887-2.592 1.98-2.592s1.979 1.16 1.979 2.591c0 1.431-.886 2.592-1.98 2.592-1.092 0-1.979-1.16-1.979-2.592z"/></g><g><path fill="#34bdf3" d="M16.979 85.357a9.44 9.44 0 0 0 .737-1.085l-5.2-.854 5.625.041a9.506 9.506 0 0 0 .184-7.512l-7.545 3.915 6.955-5.116a9.482 9.482 0 1 0-15.66 10.61 9.438 9.438 0 0 0-1.08 1.73l6.75 3.504-7.193-2.417a9.49 9.49 0 0 0 1.53 8.904 9.48 9.48 0 1 0 14.902 0 9.482 9.482 0 0 0 0-11.724z"/></g><g opacity=".1"><path d="M.047 91.219a9.436 9.436 0 0 0 2.029 5.861 9.48 9.48 0 1 0 14.903 0C18.249 95.468.047 90.154.047 91.22z"/></g></g></g></svg>