<svg xmlns="http://www.w3.org/2000/svg" width="35" height="20" viewBox="0 0 35 20"><g><g><path fill="#436eab" d="M29.806 12.234c1.128 1.101 2.318 2.137 3.33 3.35.447.538.87 1.094 1.193 1.719.459.889.044 1.867-.753 1.92l-4.953-.003c-1.278.106-2.297-.408-3.154-1.281-.686-.699-1.32-1.442-1.98-2.164-.27-.296-.553-.573-.891-.793-.677-.439-1.264-.304-1.65.4-.394.718-.483 1.512-.521 2.312-.054 1.166-.406 1.473-1.578 1.526-2.504.118-4.88-.26-7.087-1.524-1.947-1.113-3.456-2.685-4.77-4.465C4.436 9.766 2.478 5.958.717 2.044.32 1.162.61.688 1.583.672 3.199.64 4.814.642 6.433.669c.656.01 1.09.387 1.344 1.007.875 2.15 1.944 4.195 3.287 6.09.358.505.722 1.01 1.241 1.365.575.393 1.012.263 1.282-.377.172-.406.247-.843.286-1.277.128-1.495.144-2.988-.08-4.477-.138-.93-.662-1.532-1.59-1.708-.473-.09-.402-.266-.173-.536C12.428.29 12.803 0 13.549 0h5.598c.881.174 1.077.57 1.197 1.457l.005 6.218c-.01.343.172 1.362.79 1.589.495.161.821-.234 1.118-.548 1.34-1.423 2.297-3.104 3.151-4.845.38-.765.706-1.56 1.022-2.354.234-.59.601-.88 1.265-.867l5.388.005c.16 0 .321.002.476.029.908.155 1.157.545.876 1.432-.442 1.39-1.301 2.55-2.142 3.714-.898 1.243-1.86 2.444-2.75 3.694-.819 1.143-.754 1.718.263 2.71z"/></g></g></svg>