<svg xmlns="http://www.w3.org/2000/svg" width="102" height="106" viewBox="0 0 102 106"><defs><mask id="v7qtb" width="2" height="2" x="-1" y="-1"><path fill="#fff" d="M16 0h70v70H16z"/><path d="M16 35C16 15.67 31.67 0 51 0s35 15.67 35 35-15.67 35-35 35-35-15.67-35-35z"/></mask><filter id="v7qta" width="130" height="150" x="-14" y="-30" filterUnits="userSpaceOnUse"><feOffset dy="20" in="SourceGraphic" result="FeOffset1330Out"/><feGaussianBlur in="FeOffset1330Out" result="FeGaussianBlur1331Out" stdDeviation="8 8"/></filter><linearGradient id="v7qtc" x1="51" x2="51" y1="0" y2="94.95" gradientUnits="userSpaceOnUse"><stop offset="0" stop-color="#f7b12b"/><stop offset="1" stop-color="#a51d90"/></linearGradient><clipPath id="v7qtd"><path fill="#fff" d="M52 55.263c-7.18 0-13-5.82-13-13V27.43c0-7.18 5.82-13 13-13s13 5.82 13 13v14.833c0 7.18-5.82 13-13 13z"/></clipPath><clipPath id="v7qte"><path fill="#fff" d="M51.087 34a3 3 0 0 1-3-3v-8a3 3 0 0 1 3-3h1a3 3 0 0 1 3 3v8a3 3 0 0 1-3 3z"/></clipPath></defs><g><g><g><g filter="url(#v7qta)"><path fill="none" d="M16 35C16 15.67 31.67 0 51 0s35 15.67 35 35-15.67 35-35 35-35-15.67-35-35z" mask="url(&quot;#v7qtb&quot;)"/><path fill-opacity=".26" d="M16 35C16 15.67 31.67 0 51 0s35 15.67 35 35-15.67 35-35 35-35-15.67-35-35z"/></g><path fill="url(#v7qtc)" d="M16 35C16 15.67 31.67 0 51 0s35 15.67 35 35-15.67 35-35 35-35-15.67-35-35z"/></g><g><path fill="#fff" d="M45.074 38.698l.852-.852 5.568 5.58 5.58-5.58.852.852-6.432 6.42z"/><path fill="none" stroke="#fff" stroke-miterlimit="20" d="M45.074 38.698v0l.852-.852v0l5.568 5.58v0l5.58-5.58v0l.852.852v0l-6.432 6.42v0z"/></g><g><g><path fill="none" stroke="#fff" stroke-miterlimit="20" stroke-width="4" d="M52 55.263c-7.18 0-13-5.82-13-13V27.43c0-7.18 5.82-13 13-13v0c7.18 0 13 5.82 13 13v14.833c0 7.18-5.82 13-13 13z" clip-path="url(&quot;#v7qtd&quot;)"/></g><g><path fill="none" stroke="#fff" stroke-miterlimit="20" stroke-width="4" d="M51.087 34a3 3 0 0 1-3-3v-8a3 3 0 0 1 3-3h1a3 3 0 0 1 3 3v8a3 3 0 0 1-3 3z" clip-path="url(&quot;#v7qte&quot;)"/></g></g></g></g></svg>