<svg xmlns="http://www.w3.org/2000/svg" width="60" height="71" viewBox="0 0 60 71"><defs><clipPath id="r2p4a"><path fill="#fff" d="M6.483 65.75V5.145h46.754v60.607z"/></clipPath></defs><g><g><g><path fill="none" stroke="#fff" stroke-miterlimit="20" stroke-width="2" d="M46.616 6.007H13.104l.857-4.033L29.68 5.315l.18.038.18-.038 15.719-3.341.857 4.031zm5.757 54.751v-50.62L58 11.334l-5.088 23.933-.038.181.038.181L58 59.562l-5.625 1.196zm-45.023 0h-.002l-5.627-1.196L6.808 35.63l.039-.18-.039-.182-5.087-23.933 5.63-1.196zm6.61 8.165v-.002l-.857-4.037h33.514l-.858 4.037-15.72-3.34-.178-.037-.181.037-15.719 3.341z"/></g><g><g><path fill="none" stroke="#fff" stroke-miterlimit="20" stroke-width="4" d="M6.483 65.75v0V5.145v0h46.754v60.607z" clip-path="url(&quot;#r2p4a&quot;)"/></g><g><path fill="none" stroke="#fff" stroke-linecap="round" stroke-linejoin="round" stroke-miterlimit="20" stroke-width="2" d="M29.86 34.737c-6.376-5.045-11.763-7.484-11.763-14.256 0-6.77 7.884-9.764 11.763-5.576"/></g><g><path fill="none" stroke="#fff" stroke-miterlimit="20" stroke-width="2" d="M16.007 54.495h27.706"/></g><g><path fill="none" stroke="#fff" stroke-miterlimit="20" stroke-width="2" d="M16.007 57.959h27.706"/></g><g><path fill="none" stroke="#fff" stroke-miterlimit="20" stroke-width="2" d="M35.43 41.924v0H14.49v0l3.824 3.825v0l-3.53 3.677v0h30.006v0l-4.267-3.677v0l4.267-3.825v0h-6.325v0"/></g><g><path fill="none" stroke="#fff" stroke-linecap="round" stroke-linejoin="round" stroke-miterlimit="20" stroke-width="2" d="M30.218 34.737c6.376-5.045 11.763-7.484 11.763-14.256 0-6.77-7.884-9.764-11.763-5.576"/></g></g></g></g></svg>