<svg xmlns="http://www.w3.org/2000/svg" width="69" height="70" viewBox="0 0 69 70"><defs><clipPath id="l2aoa"><path fill="#fff" d="M.854 50.318V10.491h67.534v39.827z"/></clipPath><clipPath id="l2aob"><path fill="#fff" d="M30.292.1h8.658l1.732 6.927H28.56z"/></clipPath><clipPath id="l2aoc"><path fill="#fff" d="M6.05.1h8.657l1.732 6.927H4.318z"/></clipPath><clipPath id="l2aod"><path fill="#fff" d="M63.372.1h-8.658l-1.732 6.927h12.122z"/></clipPath></defs><g><g><g><path fill="none" stroke="#fff" stroke-linecap="round" stroke-linejoin="round" stroke-miterlimit="20" stroke-width="4" d="M.854 50.318v0-39.827 0h67.534v39.827z" clip-path="url(&quot;#l2aoa&quot;)"/></g><g><path fill="none" stroke="#fff" stroke-linecap="round" stroke-linejoin="round" stroke-miterlimit="20" stroke-width="2" d="M43.123 18.77v0H13.869v13.453h41.66v0V18.77v0h-8.488v0"/></g><g><path fill="none" stroke="#fff" stroke-linecap="round" stroke-miterlimit="20" stroke-width="2" d="M13.842 35.6h22.51"/></g><g><path fill="none" stroke="#fff" stroke-linecap="round" stroke-miterlimit="20" stroke-width="2" d="M39.816 35.6h15.585"/></g><g><path fill="none" stroke="#fff" stroke-linecap="round" stroke-miterlimit="20" stroke-width="2" d="M55.4 40.794H45.01"/></g><g><path fill="none" stroke="#fff" stroke-linecap="round" stroke-miterlimit="20" stroke-width="2" d="M39.816 40.794H27.695"/></g><g><path fill="none" stroke="#fff" stroke-linecap="round" stroke-miterlimit="20" stroke-width="2" d="M24.231 40.794h-10.39"/></g><g><path fill="none" stroke="#fff" stroke-linecap="round" stroke-linejoin="round" stroke-miterlimit="20" stroke-width="4" d="M30.292.1v0h8.658v0l1.732 6.927v0H28.56v0z" clip-path="url(&quot;#l2aob&quot;)"/></g><g><path fill="none" stroke="#fff" stroke-linecap="round" stroke-linejoin="round" stroke-miterlimit="20" stroke-width="4" d="M6.05.1v0h8.657v0l1.732 6.927v0H4.318v0z" clip-path="url(&quot;#l2aoc&quot;)"/></g><g><path fill="none" stroke="#fff" stroke-linecap="round" stroke-linejoin="round" stroke-miterlimit="20" stroke-width="4" d="M63.372.1v0h-8.658v0l-1.732 6.927v0h12.122v0z" clip-path="url(&quot;#l2aod&quot;)"/></g><g><path fill="none" stroke="#fff" stroke-linecap="round" stroke-miterlimit="20" stroke-width="2" d="M34.621 11.066V6.103"/></g><g><path fill="none" stroke="#fff" stroke-linecap="round" stroke-linejoin="round" stroke-miterlimit="20" stroke-width="2" d="M13.945 1.164v0h4.405v9.739"/></g><g><path fill="none" stroke="#fff" stroke-linecap="round" stroke-linejoin="round" stroke-miterlimit="20" stroke-width="2" d="M55.477 1.164v0H51.07v9.739"/></g><g><path fill="none" stroke="#fff" stroke-linecap="round" stroke-miterlimit="20" stroke-width="2" d="M28.29 68.5h13.258"/></g><g><path fill="none" stroke="#fff" stroke-linecap="round" stroke-linejoin="round" stroke-miterlimit="20" stroke-width="2" d="M28.102 49.405v0l3.15 5.468v13.434"/></g><g><path fill="none" stroke="#fff" stroke-linecap="round" stroke-linejoin="round" stroke-miterlimit="20" stroke-width="2" d="M41.642 49.405v0l-3.15 5.468v13.434"/></g></g></g></svg>