<svg xmlns="http://www.w3.org/2000/svg" width="59" height="70" viewBox="0 0 59 70"><defs><clipPath id="2kyma"><path fill="#fff" d="M18.366 33.178V15.862h32.9v17.316z"/></clipPath><clipPath id="2kymb"><path fill="#fff" d="M18.366 62.615V36.641h20.779v25.975z"/></clipPath></defs><g><g><g><path fill="none" stroke="#fff" stroke-linecap="round" stroke-linejoin="round" stroke-miterlimit="20" stroke-width="2" d="M57.307 61.59v7.13h-45.5v0V9.808v0h45.5v48.047"/></g><g><path fill="none" stroke="#fff" stroke-linecap="round" stroke-linejoin="round" stroke-miterlimit="20" stroke-width="2" d="M11.808 9.807v0L47.12 1.66v8.148"/></g><g><path fill="none" stroke="#fff" stroke-linecap="round" stroke-linejoin="round" stroke-miterlimit="20" stroke-width="2" d="M47.12 1.659v0H.943v60.779h10.723v0"/></g><g><path fill="none" stroke="#fff" stroke-linecap="round" stroke-miterlimit="20" stroke-width="2" d="M50.4 47.897h-8.658"/></g><g><path fill="none" stroke="#fff" stroke-linecap="round" stroke-miterlimit="20" stroke-width="2" d="M50.4 44.433h-8.658"/></g><g><path fill="none" stroke="#fff" stroke-linecap="round" stroke-miterlimit="20" stroke-width="2" d="M50.4 40.97h-8.658"/></g><g><path fill="none" stroke="#fff" stroke-linecap="round" stroke-miterlimit="20" stroke-width="2" d="M50.4 51.36h-8.658"/></g><g><path fill="none" stroke="#fff" stroke-linecap="round" stroke-miterlimit="20" stroke-width="2" d="M50.4 54.823h-8.658"/></g><g><path fill="none" stroke="#fff" stroke-linecap="round" stroke-miterlimit="20" stroke-width="2" d="M50.4 58.286h-8.658"/></g><g><path fill="none" stroke="#fff" stroke-linejoin="round" stroke-miterlimit="20" stroke-width="4" d="M18.366 33.178v0-17.316 0h32.9v17.316z" clip-path="url(&quot;#2kyma&quot;)"/></g><g><path fill="none" stroke="#fff" stroke-linejoin="round" stroke-miterlimit="20" stroke-width="4" d="M18.366 62.615v0-25.974 0h20.779v25.975z" clip-path="url(&quot;#2kymb&quot;)"/></g></g></g></svg>