<svg xmlns="http://www.w3.org/2000/svg" width="57" height="64" viewBox="0 0 57 64"><defs><clipPath id="fq80a"><path fill="#fff" d="M37.027 21.983a6.926 6.926 0 1 1 13.853 0 6.926 6.926 0 0 1-13.853 0z"/></clipPath><clipPath id="fq80b"><path fill="#fff" d="M35.296 41.03v-9.12a3 3 0 0 1 3-3h11.316a3 3 0 0 1 3 3v9.12z"/></clipPath></defs><g><g><g><path fill="none" stroke="#fff" stroke-miterlimit="20" stroke-width="4" d="M37.027 21.983a6.926 6.926 0 1 1 13.853 0 6.926 6.926 0 0 1-13.853 0z" clip-path="url(&quot;#fq80a&quot;)"/></g><g><path fill="none" stroke="#fff" stroke-linecap="round" stroke-linejoin="round" stroke-miterlimit="20" stroke-width="4" d="M35.296 41.03v0-9.12a3 3 0 0 1 3-3h11.316a3 3 0 0 1 3 3v9.12z" clip-path="url(&quot;#fq80b&quot;)"/></g><g><path fill="none" stroke="#fff" stroke-linejoin="round" stroke-miterlimit="20" stroke-width="2" d="M7.603 25.656v0l1.243-3.754v0L5.79 19.705v0h3.725v0l1.29-3.68v0l1.197 3.68v0h3.82v0l-3.152 2.197v0l1.147 3.754v0l-3.012-2.416v0z"/></g><g><path fill="none" stroke="#fff" stroke-linejoin="round" stroke-miterlimit="20" stroke-width="2" d="M21.456 25.656v0l1.243-3.754v0l-3.057-2.197v0h3.725v0l1.29-3.68v0l1.197 3.68v0h3.82v0l-3.152 2.197v0l1.147 3.754v0l-3.012-2.416v0z"/></g><g><path fill="none" stroke="#fff" stroke-linecap="round" stroke-miterlimit="20" stroke-width="2" d="M30.967 33.239H24.04"/></g><g><path fill="none" stroke="#fff" stroke-linecap="round" stroke-miterlimit="20" stroke-width="2" d="M24.04 36.702h6.927"/></g></g><g><path fill="none" stroke="#fff" stroke-miterlimit="20" stroke-width="2" d="M11.279 50.594v0V32.09v0s.148-3.739 4.228-3.739 4.431 3.739 4.431 3.739v13.254H55.2v0-32.86 0H11.279v0"/></g><g><path fill="none" stroke="#fff" stroke-miterlimit="20" stroke-width="2" d="M38.62 45.379v0s2.37-.217 5.765 4.537c3.395 4.754 2.037 12.562 2.037 12.562v0"/></g><g><path fill="none" stroke="#fff" stroke-miterlimit="20" stroke-width="2" d="M19.409 5.127v0s-.092-3.703-4.07-3.703-4.06 3.515-4.06 3.515v7.488H1.46V45.43h9.819v0"/></g><g><path fill="none" stroke="#fff" stroke-miterlimit="20" stroke-width="2" d="M46.593 45.43v17.355l-35.187-.037v0-6.662 0"/></g></g></svg>